<svg width="884" height="820" viewBox="0 0 884 820" fill="none" xmlns="http://www.w3.org/2000/svg">
<path d="M883 696.064C883 739.396 693.811 820 455.5 820C217.189 820 21 744.394 21 701.062C21 657.73 217.189 663.081 455.5 663.081C693.811 663.081 883 652.732 883 696.064Z" fill="#3F3D56"/>
<path opacity="0.1" d="M883 696.064C883 739.396 693.811 820 455.5 820C217.189 820 21 744.394 21 701.062C21 657.73 217.189 663.081 455.5 663.081C693.811 663.081 883 652.732 883 696.064Z" fill="black"/>
<path d="M452.5 779C690.811 779 884 743.854 884 700.5C884 657.146 690.811 622 452.5 622C214.189 622 21 657.146 21 700.5C21 743.854 214.189 779 452.5 779Z" fill="#3F3D56"/>
<path d="M616 433V643.309L651.087 700.639L653.758 705H792.203L795 433H616Z" fill="#2F2E41"/>
<path opacity="0.1" d="M616 433V642.806L650.861 700L653 433H616Z" fill="black"/>
<path d="M281 428V637.536L245.913 694.656L243.242 699H104.797L102 428H281Z" fill="#2F2E41"/>
<path opacity="0.1" d="M281 428V637.806L246.14 695L244 428H281Z" fill="black"/>
<path d="M837 423.307V436H84V417.667L153.981 381H775.416L837 423.307Z" fill="#2F2E41"/>
<path opacity="0.1" d="M837 423.538V436H84V418L837 423.538Z" fill="black"/>
<path opacity="0.1" d="M191.6 486H158L144 477H207L191.6 486Z" fill="black"/>
<path opacity="0.1" d="M191.6 527H158L144 517H207L191.6 527Z" fill="black"/>
<path opacity="0.1" d="M191.6 584H158L144 575H207L191.6 584Z" fill="black"/>
<path opacity="0.1" d="M191.6 642H158L144 632H207L191.6 642Z" fill="black"/>
<path opacity="0.1" d="M705.4 492H739L753 482H690L705.4 492Z" fill="black"/>
<path opacity="0.1" d="M705.4 533H739L753 523H690L705.4 533Z" fill="black"/>
<path opacity="0.1" d="M705.4 590H739L753 580H690L705.4 590Z" fill="black"/>
<path opacity="0.1" d="M705.4 647H739L753 638H690L705.4 647Z" fill="black"/>
<path d="M553.312 346.782L548.627 376.366C548.627 376.366 525.561 388.485 541.779 388.842C557.997 389.198 634.402 388.842 634.402 388.842C634.402 388.842 649.178 388.842 625.752 376.01L621.067 345L553.312 346.782Z" fill="#3F3D56"/>
<path opacity="0.1" d="M538.512 388.929C541.662 386.386 545.047 384.149 548.622 382.248L553.308 352.386L621.066 352.45L625.752 381.888C629.602 383.872 633.231 386.255 636.579 389C639.588 388.315 642.876 385.768 625.752 376.301L621.066 345L553.308 346.799L548.622 376.66C548.622 376.66 529.24 386.941 538.512 388.929Z" fill="black"/>
<path d="M728.312 139H445.688C439.785 139 435 143.791 435 149.701V340.299C435 346.209 439.785 351 445.688 351H728.312C734.215 351 739 346.209 739 340.299V149.701C739 143.791 734.215 139 728.312 139Z" fill="#3F3D56"/>
<path d="M729 150H445V309H729V150Z" fill="#F2F2F2"/>
<path d="M587 147C588.105 147 589 146.105 589 145C589 143.895 588.105 143 587 143C585.895 143 585 143.895 585 145C585 146.105 585.895 147 587 147Z" fill="#F2F2F2"/>
<path d="M739 321V340.038C739 341.478 738.724 342.903 738.187 344.233C737.65 345.563 736.862 346.772 735.87 347.79C734.877 348.808 733.699 349.615 732.402 350.166C731.105 350.717 729.715 351 728.312 351H445.688C444.285 351 442.895 350.717 441.598 350.166C440.301 349.615 439.123 348.808 438.13 347.79C437.138 346.772 436.35 345.563 435.813 344.233C435.276 342.903 435 341.478 435 340.038V321H739Z" fill="#3F3D56"/>
<path d="M587 343C590.866 343 594 339.866 594 336C594 332.134 590.866 329 587 329C583.134 329 580 332.134 580 336C580 339.866 583.134 343 587 343Z" fill="#F2F2F2"/>
<path d="M576 408.304V412H383V409.044L383.266 408.304L388.023 395H572.054L576 408.304Z" fill="#3F3D56"/>
<path d="M650.939 404.346C650.583 405.848 649.237 407.433 646.196 408.932C635.284 414.311 613.096 407.498 613.096 407.498C613.096 407.498 596 404.629 596 397.1C596.48 396.776 596.981 396.482 597.499 396.221C602.086 393.829 617.298 387.925 644.27 396.471C646.257 397.086 648.032 398.233 649.397 399.783C650.002 400.369 650.457 401.089 650.725 401.882C650.993 402.675 651.067 403.52 650.939 404.346V404.346Z" fill="#3F3D56"/>
<path opacity="0.1" d="M650.94 404.385C637.709 409.446 625.915 409.824 613.811 401.432C607.707 397.202 602.162 396.155 598 396.235C602.545 393.834 617.614 387.912 644.333 396.485C646.301 397.102 648.06 398.252 649.412 399.808C650.011 400.396 650.462 401.117 650.727 401.913C650.993 402.709 651.066 403.556 650.94 404.385V404.385Z" fill="black"/>
<path d="M634 402C636.761 402 639 401.328 639 400.5C639 399.672 636.761 399 634 399C631.239 399 629 399.672 629 400.5C629 401.328 631.239 402 634 402Z" fill="#F2F2F2"/>
<path opacity="0.1" d="M576 408V412H383V408.801L383.266 408H576Z" fill="black"/>
<path d="M415.5 187C436.763 187 454 169.987 454 149C454 128.013 436.763 111 415.5 111C394.237 111 377 128.013 377 149C377 169.987 394.237 187 415.5 187Z" fill="#FFB9B9"/>
<path d="M387 168V228H450C450 228 441.871 178 445.935 163L387 168Z" fill="#FFB9B9"/>
<path d="M510.91 249.974C510.91 249.974 451.643 220.806 451.643 218.795C451.643 216.783 445.615 203.708 441.597 203.708C437.579 203.708 403.425 192.645 384.339 208.737L382.33 221.812L309 270.089L329.091 343.51C329.091 343.51 342.149 357.591 338.131 367.648C334.113 377.706 341.145 429 341.145 429L498.855 423.971V355.579C498.855 355.579 503.878 339.487 506.891 334.458C509.905 329.429 506.891 314.343 506.891 314.343L531 284.17C531 284.17 527.986 256.008 510.91 249.974Z" fill="#D0CDE1"/>
<path opacity="0.1" d="M311.665 294.652L316.146 270C316.146 270 290.252 383.7 293.24 396.781C296.228 409.861 318.138 429.985 321.126 430.991C324.114 431.998 352 344.459 352 344.459L311.665 294.652Z" fill="black"/>
<path d="M326.077 267L309.146 270.018C309.146 270.018 283.252 383.706 286.24 396.785C289.228 409.864 311.138 429.985 314.126 430.991C317.114 431.997 345 344.468 345 344.468L326.077 267Z" fill="#D0CDE1"/>
<path opacity="0.1" d="M516.661 300.605L525.211 284C525.211 284 537.281 397.718 529.234 408.788C521.187 419.858 489.357 424 489.357 424L489 341.362L516.661 300.605Z" fill="black"/>
<path d="M518.134 271L531.211 284.076C531.211 284.076 543.281 397.732 535.234 408.796C527.187 419.86 495.356 424 495.356 424L495 341.407L518.134 271Z" fill="#D0CDE1"/>
<path d="M323.125 443.895C323.125 443.895 293.955 432.836 288.926 453.948C283.897 475.06 300.996 569.562 300.996 569.562C300.996 569.562 312.061 640.941 319.102 642.952C326.143 644.963 357.324 645.968 362.354 636.92C367.383 627.872 347.266 535.381 347.266 535.381L463.946 533.37C463.946 533.37 456.905 613.797 452.881 620.834C448.858 627.872 448.858 652 452.881 652C456.905 652 501.163 649.989 504.18 643.957C507.198 637.925 524.297 502.204 524.297 502.204C524.297 502.204 538.379 454.953 522.286 457.97C506.192 460.986 323.125 443.895 323.125 443.895Z" fill="#3F3D56"/>
<path d="M495.508 640.113C495.508 640.113 505.638 633.109 510.703 640.113C515.768 647.118 517.794 655.123 495.508 667.13C473.221 679.138 456 676.136 456 674.135V645.116L495.508 640.113Z" fill="#2F2E41"/>
<path d="M321.174 637.113C321.174 637.113 311.218 630.109 306.24 637.113C301.263 644.118 299.271 652.123 321.174 664.13C343.076 676.138 360 673.136 360 671.135V642.116L321.174 637.113Z" fill="#2F2E41"/>
<path d="M415.47 101.02C411.662 100.887 407.86 101.43 404.241 102.623C401.435 103.753 398.754 105.174 396.242 106.863L379.364 117.379C377.931 118 376.714 119.032 375.866 120.346C375.018 121.659 374.578 123.195 374.6 124.759L372.491 140.584C371.959 144.577 371.468 148.848 373.252 152.459C374.742 155.472 377.582 157.535 379.917 159.95C383.655 163.831 386.17 168.728 387.151 174.031C388.358 180.638 387.585 188.595 392.804 192.811C395.629 195.094 399.481 195.526 403.105 195.738C413.014 196.318 422.957 195.934 432.792 194.593C434.356 194.476 435.881 194.048 437.278 193.334C439.052 192.283 440.169 190.427 441.213 188.646C444.982 182.217 448.867 175.378 448.826 167.922C448.805 164.234 447.863 160.272 449.631 157.037C450.565 155.661 451.579 154.342 452.667 153.086C454.856 150.005 455.282 146.046 455.639 142.281C456.778 130.255 455.587 121.103 446.74 112.632C438.482 104.724 426.732 101.092 415.47 101.02Z" fill="#2F2E41"/>
<path d="M321.6 563L288 733H304.799L337 565.788L321.6 563Z" fill="#2F2E41"/>
<path d="M430 576.612L451 773H465L452.4 571L430 576.612Z" fill="#2F2E41"/>
<path d="M487 570.8L516.129 701H530L502.258 568L487 570.8Z" fill="#2F2E41"/>
<path d="M375.286 571L371 675H382.428L391 571H375.286Z" fill="#2F2E41"/>
<path d="M297.88 544.759C297.88 544.759 275.416 395.062 338.595 390.865C401.774 386.668 491.628 390.865 491.628 390.865C491.628 390.865 543.575 386.668 528.131 544.759C528.131 544.759 542.171 590.927 415.813 586.73C289.456 582.533 297.88 544.759 297.88 544.759Z" fill="#6C63FF"/>
<path d="M872 605.607C872 631.84 856.554 641 837.5 641C818.446 641 803 631.84 803 605.607C803 579.373 837.5 546 837.5 546C837.5 546 872 579.373 872 605.607Z" fill="#6C63FF"/>
<path d="M836.258 614.975L851 587.836L836.312 611.533L836.472 601.67L846.633 582.035L836.514 599.059L836.8 581.319L847.681 565.688L836.845 578.53L837.025 546L835.948 587.219L824.93 570.249L835.815 590.697L834.784 610.51L834.753 609.984L822 592.055L834.714 611.842L834.586 614.32L834.563 614.357L834.574 614.561L831.958 641H835.453L835.872 638.864L848.555 619.124L835.902 636.912L836.258 614.975Z" fill="#3F3D56"/>
<path d="M859.554 698H817.793L807 637H868L859.554 698Z" fill="#2F2E41"/>
<path d="M252 289H166V390H252V289Z" fill="#3F3D56"/>
<path d="M239 305H179V374H239V305Z" fill="#F2F2F2"/>
<path d="M651.992 195H586.008C581.585 195 578 198.585 578 203.008V268.992C578 273.415 581.585 277 586.008 277H651.992C656.415 277 660 273.415 660 268.992V203.008C660 198.585 656.415 195 651.992 195Z" fill="#3178C6"/>
<path fill-rule="evenodd" clip-rule="evenodd" d="M629.215 261.02V269.004C630.532 269.669 632.091 270.168 633.89 270.501C635.69 270.834 637.586 271 639.58 271C641.523 271 643.369 270.817 645.117 270.451C646.866 270.085 648.399 269.482 649.717 268.642C651.035 267.802 652.078 266.704 652.847 265.349C653.616 263.993 654 262.318 654 260.322C654 258.875 653.78 257.606 653.341 256.517C652.902 255.427 652.268 254.459 651.44 253.61C650.613 252.762 649.62 252.001 648.463 251.327C647.305 250.654 646 250.017 644.547 249.419C643.483 248.986 642.528 248.566 641.683 248.159C640.839 247.751 640.12 247.335 639.529 246.911C638.938 246.487 638.482 246.038 638.161 245.564C637.84 245.09 637.679 244.554 637.679 243.955C637.679 243.406 637.823 242.911 638.11 242.47C638.397 242.029 638.803 241.651 639.326 241.335C639.85 241.019 640.492 240.774 641.252 240.599C642.013 240.424 642.857 240.337 643.787 240.337C644.463 240.337 645.176 240.387 645.928 240.487C646.68 240.587 647.436 240.741 648.197 240.948C648.957 241.156 649.696 241.418 650.414 241.734C651.132 242.05 651.795 242.416 652.403 242.832V235.372C651.17 234.907 649.823 234.561 648.361 234.337C646.9 234.112 645.223 234 643.331 234C641.404 234 639.58 234.204 637.857 234.611C636.133 235.019 634.617 235.655 633.307 236.52C631.998 237.385 630.963 238.487 630.203 239.826C629.443 241.165 629.062 242.765 629.062 244.628C629.062 247.007 629.759 249.036 631.153 250.716C632.547 252.396 634.663 253.818 637.502 254.983C638.617 255.432 639.656 255.872 640.619 256.305C641.582 256.737 642.414 257.186 643.115 257.652C643.816 258.118 644.37 258.625 644.775 259.174C645.181 259.723 645.383 260.347 645.383 261.045C645.383 261.561 645.257 262.039 645.003 262.48C644.75 262.921 644.365 263.303 643.85 263.627C643.335 263.952 642.693 264.205 641.924 264.388C641.155 264.571 640.256 264.663 639.225 264.663C637.468 264.663 635.728 264.359 634.004 263.752C632.281 263.145 630.684 262.235 629.215 261.02V261.02ZM615.587 241.349H625.986V234.797H597V241.349H607.348V270.522H615.587V241.349Z" fill="white"/>
<rect x="188" y="320" width="20" height="20" fill="#6C63FF"/>
<rect x="196" y="334" width="20" height="20" fill="#6C63FF"/>
<rect x="211" y="342" width="20" height="20" fill="#6C63FF"/>
</svg>
