<svg width="888" height="647" viewBox="0 0 888 647" fill="none" xmlns="http://www.w3.org/2000/svg">
<path d="M10.8951 3.35803H3.17902V15.7037H10.8951V3.35803Z" fill="#A061FF"/>
<path d="M37.1296 0.271606H29.4136V12.6173H37.1296V0.271606Z" fill="#A061FF"/>
<path d="M51.0185 0.271606H43.3025V12.6173H51.0185V0.271606Z" fill="#A061FF"/>
<path d="M51.0185 37.3086H43.3025V49.6543H51.0185V37.3086Z" fill="#A061FF"/>
<path d="M66.4506 18.7902H58.7346V31.1358H66.4506V18.7902Z" fill="#A061FF"/>
<path d="M66.4506 38.8518H58.7346V51.1975H66.4506V38.8518Z" fill="#A061FF"/>
<path d="M51.0185 77.4321H43.3025V89.7778H51.0185V77.4321Z" fill="#A061FF"/>
<path d="M66.4506 97.4939H58.7346V109.84H66.4506V97.4939Z" fill="#A061FF"/>
<path d="M51.0185 173.111H43.3025V185.457H51.0185V173.111Z" fill="#A061FF"/>
<path d="M37.1296 97.4939H29.4136V109.84H37.1296V97.4939Z" fill="#A061FF"/>
<path d="M10.8951 23.4198H3.17902V35.7655H10.8951V23.4198Z" fill="#A061FF"/>
<path d="M10.8951 216.321H3.17902V228.667H10.8951V216.321Z" fill="#A061FF"/>
<path d="M10.8951 256.444H3.17902V268.79H10.8951V256.444Z" fill="#A061FF"/>
<path d="M10.8951 276.506H3.17902V288.852H10.8951V276.506Z" fill="#A061FF"/>
<path d="M10.8951 45.0247H0.0925903V46.5679H10.8951V45.0247Z" fill="#A061FF"/>
<path d="M52.5617 63.5432H41.7593V65.0864H52.5617V63.5432Z" fill="#A061FF"/>
<path d="M10.8951 143.79H0.0925903V145.333H10.8951V143.79Z" fill="#A061FF"/>
<path d="M10.8951 160.765H0.0925903V162.309H10.8951V160.765Z" fill="#A061FF"/>
<path d="M52.5617 259.531H41.7593V261.074H52.5617V259.531Z" fill="#A061FF"/>
<path d="M40.216 296.568H29.4136V298.111H40.216V296.568Z" fill="#A061FF"/>
<path d="M3.179 58.9141V62.0001H6.265V68.1731H3.179V71.2591H10.895V58.9141H3.179Z" fill="#A061FF"/>
<path d="M29.414 37.309V40.395H32.5V46.568H29.414V49.654H37.13V37.309H29.414Z" fill="#A061FF"/>
<path d="M58.735 57.37V60.457H61.821V66.63H58.735V69.716H66.451V57.37H58.735Z" fill="#A061FF"/>
<path d="M58.735 117.556V120.642H61.821V126.815H58.735V129.901H66.451V117.556H58.735Z" fill="#A061FF"/>
<path d="M58.735 137.617V140.704H61.821V146.877H58.735V149.963H66.451V137.617H58.735Z" fill="#A061FF"/>
<path d="M58.735 75.889V78.975H61.821V85.148H58.735V88.235H66.451V75.889H58.735Z" fill="#A061FF"/>
<path d="M43.302 18.79V21.877H46.389V28.049H43.302V31.136H51.019V18.79H43.302Z" fill="#A061FF"/>
<path d="M51.0185 117.556H43.3025V129.901H51.0185V117.556Z" fill="#A061FF"/>
<path d="M51.0185 154.593H43.3025V166.938H51.0185V154.593Z" fill="#A061FF"/>
<path d="M43.302 136.074V139.16H46.389V145.333H43.302V148.42H51.019V136.074H43.302Z" fill="#A061FF"/>
<path d="M29.414 57.37V60.457H32.5V66.63H29.414V69.716H37.13V57.37H29.414Z" fill="#A061FF"/>
<path d="M29.414 77.432V80.519H32.5V86.691H29.414V89.778H37.13V77.432H29.414Z" fill="#A061FF"/>
<path d="M37.1296 137.617H29.4136V149.963H37.1296V137.617Z" fill="#A061FF"/>
<path d="M29.414 117.556V120.642H32.5V126.815H29.414V129.901H37.13V117.556H29.414Z" fill="#A061FF"/>
<path d="M37.1296 177.741H29.4136V190.086H37.1296V177.741Z" fill="#A061FF"/>
<path d="M29.414 157.679V160.765H32.5V166.938H29.414V170.025H37.13V157.679H29.414Z" fill="#A061FF"/>
<path d="M37.1296 217.864H29.4136V230.21H37.1296V217.864Z" fill="#A061FF"/>
<path d="M51.0185 214.778H43.3025V227.124H51.0185V214.778Z" fill="#A061FF"/>
<path d="M29.414 197.802V200.889H32.5V207.062H29.414V210.148H37.13V197.802H29.414Z" fill="#A061FF"/>
<path d="M58.735 197.802V200.889H61.821V207.062H58.735V210.148H66.451V197.802H58.735Z" fill="#A061FF"/>
<path d="M145.154 18.7902H137.438V31.1358H145.154V18.7902Z" fill="#A061FF"/>
<path d="M145.154 38.8518H137.438V51.1975H145.154V38.8518Z" fill="#A061FF"/>
<path d="M145.154 97.4939H137.438V109.84H145.154V97.4939Z" fill="#A061FF"/>
<path d="M137.438 57.37V60.457H140.525V66.63H137.438V69.716H145.154V57.37H137.438Z" fill="#A061FF"/>
<path d="M137.438 117.556V120.642H140.525V126.815H137.438V129.901H145.154V117.556H137.438Z" fill="#A061FF"/>
<path d="M137.438 137.617V140.704H140.525V146.877H137.438V149.963H145.154V137.617H137.438Z" fill="#A061FF"/>
<path d="M137.438 75.889V78.975H140.525V85.148H137.438V88.235H145.154V75.889H137.438Z" fill="#A061FF"/>
<path d="M137.438 197.802V200.889H140.525V207.062H137.438V210.148H145.154V197.802H137.438Z" fill="#A061FF"/>
<path d="M37.1296 257.988H29.4136V270.333H37.1296V257.988Z" fill="#A061FF"/>
<path d="M51.0185 234.839H43.3025V247.185H51.0185V234.839Z" fill="#A061FF"/>
<path d="M37.1296 310.457H29.4136V322.802H37.1296V310.457Z" fill="#A061FF"/>
<path d="M51.0185 273.42H43.3025V285.765H51.0185V273.42Z" fill="#A061FF"/>
<path d="M29.414 237.926V241.012H32.5V247.185H29.414V250.272H37.13V237.926H29.414Z" fill="#A061FF"/>
<path d="M29.414 332.062V335.148H32.5V341.321H29.414V344.407H37.13V332.062H29.414Z" fill="#A061FF"/>
<path d="M122.006 0.271606H114.29V12.6173H122.006V0.271606Z" fill="#A061FF"/>
<path d="M122.006 97.4939H114.29V109.84H122.006V97.4939Z" fill="#A061FF"/>
<path d="M125.093 296.568H114.29V298.111H125.093V296.568Z" fill="#A061FF"/>
<path d="M114.29 37.309V40.395H117.377V46.568H114.29V49.654H122.006V37.309H114.29Z" fill="#A061FF"/>
<path d="M114.29 57.37V60.457H117.377V66.63H114.29V69.716H122.006V57.37H114.29Z" fill="#A061FF"/>
<path d="M114.29 77.432V80.519H117.377V86.691H114.29V89.778H122.006V77.432H114.29Z" fill="#A061FF"/>
<path d="M122.006 137.617H114.29V149.963H122.006V137.617Z" fill="#A061FF"/>
<path d="M114.29 117.556V120.642H117.377V126.815H114.29V129.901H122.006V117.556H114.29Z" fill="#A061FF"/>
<path d="M122.006 177.741H114.29V190.086H122.006V177.741Z" fill="#A061FF"/>
<path d="M114.29 157.679V160.765H117.377V166.938H114.29V170.025H122.006V157.679H114.29Z" fill="#A061FF"/>
<path d="M122.006 217.864H114.29V230.21H122.006V217.864Z" fill="#A061FF"/>
<path d="M114.29 197.802V200.889H117.377V207.062H114.29V210.148H122.006V197.802H114.29Z" fill="#A061FF"/>
<path d="M122.006 257.988H114.29V270.333H122.006V257.988Z" fill="#A061FF"/>
<path d="M122.006 310.457H114.29V322.802H122.006V310.457Z" fill="#A061FF"/>
<path d="M114.29 237.926V241.012H117.377V247.185H114.29V250.272H122.006V237.926H114.29Z" fill="#A061FF"/>
<path d="M114.29 332.062V335.148H117.377V341.321H114.29V344.407H122.006V332.062H114.29Z" fill="#A061FF"/>
<path d="M159.043 0.271606H151.327V12.6173H159.043V0.271606Z" fill="#A061FF"/>
<path d="M159.043 97.4939H151.327V109.84H159.043V97.4939Z" fill="#A061FF"/>
<path d="M162.13 296.568H151.327V298.111H162.13V296.568Z" fill="#A061FF"/>
<path d="M151.327 37.309V40.395H154.414V46.568H151.327V49.654H159.043V37.309H151.327Z" fill="#A061FF"/>
<path d="M151.327 57.37V60.457H154.414V66.63H151.327V69.716H159.043V57.37H151.327Z" fill="#A061FF"/>
<path d="M151.327 77.432V80.519H154.414V86.691H151.327V89.778H159.043V77.432H151.327Z" fill="#A061FF"/>
<path d="M159.043 137.617H151.327V149.963H159.043V137.617Z" fill="#A061FF"/>
<path d="M151.327 117.556V120.642H154.414V126.815H151.327V129.901H159.043V117.556H151.327Z" fill="#A061FF"/>
<path d="M159.043 177.741H151.327V190.086H159.043V177.741Z" fill="#A061FF"/>
<path d="M151.327 157.679V160.765H154.414V166.938H151.327V170.025H159.043V157.679H151.327Z" fill="#A061FF"/>
<path d="M159.043 217.864H151.327V230.21H159.043V217.864Z" fill="#A061FF"/>
<path d="M151.327 197.802V200.889H154.414V207.062H151.327V210.148H159.043V197.802H151.327Z" fill="#A061FF"/>
<path d="M159.043 257.988H151.327V270.333H159.043V257.988Z" fill="#A061FF"/>
<path d="M159.043 310.457H151.327V322.802H159.043V310.457Z" fill="#A061FF"/>
<path d="M151.327 237.926V241.012H154.414V247.185H151.327V250.272H159.043V237.926H151.327Z" fill="#A061FF"/>
<path d="M151.327 332.062V335.148H154.414V341.321H151.327V344.407H159.043V332.062H151.327Z" fill="#A061FF"/>
<path d="M43.302 310.457V313.543H46.389V319.716H43.302V322.802H51.019V310.457H43.302Z" fill="#A061FF"/>
<path d="M43.302 330.519V333.605H46.389V339.778H43.302V342.864H51.019V330.519H43.302Z" fill="#A061FF"/>
<path d="M3.179 97.494V100.58H6.265V106.753H3.179V109.84H10.895V97.494H3.179Z" fill="#A061FF"/>
<path d="M3.179 176.198V179.284H6.265V185.457H3.179V188.543H10.895V176.198H3.179Z" fill="#A061FF"/>
<path d="M3.179 196.259V199.346H6.265V205.519H3.179V208.605H10.895V196.259H3.179Z" fill="#A061FF"/>
<path d="M3.179 236.383V239.469H6.265V245.642H3.179V248.728H10.895V236.383H3.179Z" fill="#A061FF"/>
<path d="M3.179 293.481V296.568H6.265V302.741H3.179V305.827H10.895V293.481H3.179Z" fill="#A061FF"/>
<path d="M3.179 310.457V313.543H6.265V319.716H3.179V322.802H10.895V310.457H3.179Z" fill="#A061FF"/>
<path d="M91.142 3.35803H83.4259V15.7037H91.142V3.35803Z" fill="#A061FF"/>
<path d="M91.142 23.4198H83.4259V35.7655H91.142V23.4198Z" fill="#A061FF"/>
<path d="M91.142 45.0247H80.3395V46.5679H91.142V45.0247Z" fill="#A061FF"/>
<path d="M91.142 143.79H80.3395V145.333H91.142V143.79Z" fill="#A061FF"/>
<path d="M91.142 160.765H80.3395V162.309H91.142V160.765Z" fill="#A061FF"/>
<path d="M83.426 58.9141V62.0001H86.512V68.1731H83.426V71.2591H91.142V58.9141H83.426Z" fill="#A061FF"/>
<path d="M83.426 97.494V100.58H86.512V106.753H83.426V109.84H91.142V97.494H83.426Z" fill="#A061FF"/>
<path d="M83.426 176.198V179.284H86.512V185.457H83.426V188.543H91.142V176.198H83.426Z" fill="#A061FF"/>
<path d="M179.105 137.617H171.389V149.963H179.105V137.617Z" fill="#A061FF"/>
<path d="M179.105 157.679H171.389V170.025H179.105V157.679Z" fill="#A061FF"/>
<path d="M179.105 179.284H168.302V180.827H179.105V179.284Z" fill="#A061FF"/>
<path d="M179.105 278.049H168.302V279.593H179.105V278.049Z" fill="#A061FF"/>
<path d="M179.105 295.025H168.302V296.568H179.105V295.025Z" fill="#A061FF"/>
<path d="M171.389 193.173V196.259H174.475V202.432H171.389V205.519H179.105V193.173H171.389Z" fill="#A061FF"/>
<path d="M171.389 231.753V234.84H174.475V241.012H171.389V244.099H179.105V231.753H171.389Z" fill="#A061FF"/>
<path d="M171.389 310.457V313.543H174.475V319.716H171.389V322.802H179.105V310.457H171.389Z" fill="#A061FF"/>
<path d="M203.796 3.35803H196.08V15.7037H203.796V3.35803Z" fill="#A061FF"/>
<path d="M230.031 0.271606H222.315V12.6173H230.031V0.271606Z" fill="#A061FF"/>
<path d="M243.92 0.271606H236.204V12.6173H243.92V0.271606Z" fill="#A061FF"/>
<path d="M243.92 37.3086H236.204V49.6543H243.92V37.3086Z" fill="#A061FF"/>
<path d="M259.352 18.7902H251.636V31.1358H259.352V18.7902Z" fill="#A061FF"/>
<path d="M259.352 38.8518H251.636V51.1975H259.352V38.8518Z" fill="#A061FF"/>
<path d="M243.92 77.4321H236.204V89.7778H243.92V77.4321Z" fill="#A061FF"/>
<path d="M259.352 97.4939H251.636V109.84H259.352V97.4939Z" fill="#A061FF"/>
<path d="M243.92 173.111H236.204V185.457H243.92V173.111Z" fill="#A061FF"/>
<path d="M230.031 97.4939H222.315V109.84H230.031V97.4939Z" fill="#A061FF"/>
<path d="M203.796 23.4198H196.08V35.7655H203.796V23.4198Z" fill="#A061FF"/>
<path d="M203.796 216.321H196.08V228.667H203.796V216.321Z" fill="#A061FF"/>
<path d="M203.796 256.444H196.08V268.79H203.796V256.444Z" fill="#A061FF"/>
<path d="M203.796 276.506H196.08V288.852H203.796V276.506Z" fill="#A061FF"/>
<path d="M203.796 45.0247H192.994V46.5679H203.796V45.0247Z" fill="#A061FF"/>
<path d="M245.463 63.5432H234.66V65.0864H245.463V63.5432Z" fill="#A061FF"/>
<path d="M203.796 143.79H192.994V145.333H203.796V143.79Z" fill="#A061FF"/>
<path d="M203.796 160.765H192.994V162.309H203.796V160.765Z" fill="#A061FF"/>
<path d="M245.463 259.531H234.66V261.074H245.463V259.531Z" fill="#A061FF"/>
<path d="M233.117 296.568H222.315V298.111H233.117V296.568Z" fill="#A061FF"/>
<path d="M196.08 58.9141V62.0001H199.167V68.1731H196.08V71.2591H203.796V58.9141H196.08Z" fill="#A061FF"/>
<path d="M222.315 37.309V40.395H225.401V46.568H222.315V49.654H230.031V37.309H222.315Z" fill="#A061FF"/>
<path d="M251.636 57.37V60.457H254.722V66.63H251.636V69.716H259.352V57.37H251.636Z" fill="#A061FF"/>
<path d="M251.636 117.556V120.642H254.722V126.815H251.636V129.901H259.352V117.556H251.636Z" fill="#A061FF"/>
<path d="M251.636 137.617V140.704H254.722V146.877H251.636V149.963H259.352V137.617H251.636Z" fill="#A061FF"/>
<path d="M251.636 75.889V78.975H254.722V85.148H251.636V88.235H259.352V75.889H251.636Z" fill="#A061FF"/>
<path d="M236.204 18.79V21.877H239.29V28.049H236.204V31.136H243.92V18.79H236.204Z" fill="#A061FF"/>
<path d="M243.92 117.556H236.204V129.901H243.92V117.556Z" fill="#A061FF"/>
<path d="M243.92 154.593H236.204V166.938H243.92V154.593Z" fill="#A061FF"/>
<path d="M236.204 136.074V139.16H239.29V145.333H236.204V148.42H243.92V136.074H236.204Z" fill="#A061FF"/>
<path d="M222.315 57.37V60.457H225.401V66.63H222.315V69.716H230.031V57.37H222.315Z" fill="#A061FF"/>
<path d="M222.315 77.432V80.519H225.401V86.691H222.315V89.778H230.031V77.432H222.315Z" fill="#A061FF"/>
<path d="M230.031 137.617H222.315V149.963H230.031V137.617Z" fill="#A061FF"/>
<path d="M222.315 117.556V120.642H225.401V126.815H222.315V129.901H230.031V117.556H222.315Z" fill="#A061FF"/>
<path d="M230.031 177.741H222.315V190.086H230.031V177.741Z" fill="#A061FF"/>
<path d="M222.315 157.679V160.765H225.401V166.938H222.315V170.025H230.031V157.679H222.315Z" fill="#A061FF"/>
<path d="M230.031 217.864H222.315V230.21H230.031V217.864Z" fill="#A061FF"/>
<path d="M243.92 214.778H236.204V227.124H243.92V214.778Z" fill="#A061FF"/>
<path d="M222.315 197.802V200.889H225.401V207.062H222.315V210.148H230.031V197.802H222.315Z" fill="#A061FF"/>
<path d="M251.636 197.802V200.889H254.722V207.062H251.636V210.148H259.352V197.802H251.636Z" fill="#A061FF"/>
<path d="M338.056 18.7902H330.34V31.1358H338.056V18.7902Z" fill="#A061FF"/>
<path d="M338.056 38.8518H330.34V51.1975H338.056V38.8518Z" fill="#A061FF"/>
<path d="M338.056 97.4939H330.34V109.84H338.056V97.4939Z" fill="#A061FF"/>
<path d="M330.34 57.37V60.457H333.426V66.63H330.34V69.716H338.056V57.37H330.34Z" fill="#A061FF"/>
<path d="M330.34 117.556V120.642H333.426V126.815H330.34V129.901H338.056V117.556H330.34Z" fill="#A061FF"/>
<path d="M330.34 137.617V140.704H333.426V146.877H330.34V149.963H338.056V137.617H330.34Z" fill="#A061FF"/>
<path d="M330.34 75.889V78.975H333.426V85.148H330.34V88.235H338.056V75.889H330.34Z" fill="#A061FF"/>
<path d="M330.34 197.802V200.889H333.426V207.062H330.34V210.148H338.056V197.802H330.34Z" fill="#A061FF"/>
<path d="M230.031 257.988H222.315V270.333H230.031V257.988Z" fill="#A061FF"/>
<path d="M243.92 234.839H236.204V247.185H243.92V234.839Z" fill="#A061FF"/>
<path d="M230.031 310.457H222.315V322.802H230.031V310.457Z" fill="#A061FF"/>
<path d="M243.92 273.42H236.204V285.765H243.92V273.42Z" fill="#A061FF"/>
<path d="M222.315 237.926V241.012H225.401V247.185H222.315V250.272H230.031V237.926H222.315Z" fill="#A061FF"/>
<path d="M222.315 332.062V335.148H225.401V341.321H222.315V344.407H230.031V332.062H222.315Z" fill="#A061FF"/>
<path d="M314.907 0.271606H307.191V12.6173H314.907V0.271606Z" fill="#A061FF"/>
<path d="M314.907 97.4939H307.191V109.84H314.907V97.4939Z" fill="#A061FF"/>
<path d="M317.994 296.568H307.191V298.111H317.994V296.568Z" fill="#A061FF"/>
<path d="M307.191 37.309V40.395H310.278V46.568H307.191V49.654H314.907V37.309H307.191Z" fill="#A061FF"/>
<path d="M307.191 57.37V60.457H310.278V66.63H307.191V69.716H314.907V57.37H307.191Z" fill="#A061FF"/>
<path d="M307.191 77.432V80.519H310.278V86.691H307.191V89.778H314.907V77.432H307.191Z" fill="#A061FF"/>
<path d="M314.907 137.617H307.191V149.963H314.907V137.617Z" fill="#A061FF"/>
<path d="M307.191 117.556V120.642H310.278V126.815H307.191V129.901H314.907V117.556H307.191Z" fill="#A061FF"/>
<path d="M314.907 177.741H307.191V190.086H314.907V177.741Z" fill="#A061FF"/>
<path d="M307.191 157.679V160.765H310.278V166.938H307.191V170.025H314.907V157.679H307.191Z" fill="#A061FF"/>
<path d="M314.907 217.864H307.191V230.21H314.907V217.864Z" fill="#A061FF"/>
<path d="M307.191 197.802V200.889H310.278V207.062H307.191V210.148H314.907V197.802H307.191Z" fill="#A061FF"/>
<path d="M314.907 257.988H307.191V270.333H314.907V257.988Z" fill="#A061FF"/>
<path d="M314.907 310.457H307.191V322.802H314.907V310.457Z" fill="#A061FF"/>
<path d="M307.191 237.926V241.012H310.278V247.185H307.191V250.272H314.907V237.926H307.191Z" fill="#A061FF"/>
<path d="M307.191 332.062V335.148H310.278V341.321H307.191V344.407H314.907V332.062H307.191Z" fill="#A061FF"/>
<path d="M351.944 0.271606H344.228V12.6173H351.944V0.271606Z" fill="#A061FF"/>
<path d="M351.944 97.4939H344.228V109.84H351.944V97.4939Z" fill="#A061FF"/>
<path d="M355.031 296.568H344.228V298.111H355.031V296.568Z" fill="#A061FF"/>
<path d="M344.228 37.309V40.395H347.315V46.568H344.228V49.654H351.944V37.309H344.228Z" fill="#A061FF"/>
<path d="M344.228 57.37V60.457H347.315V66.63H344.228V69.716H351.944V57.37H344.228Z" fill="#A061FF"/>
<path d="M344.228 77.432V80.519H347.315V86.691H344.228V89.778H351.944V77.432H344.228Z" fill="#A061FF"/>
<path d="M351.944 137.617H344.228V149.963H351.944V137.617Z" fill="#A061FF"/>
<path d="M344.228 117.556V120.642H347.315V126.815H344.228V129.901H351.944V117.556H344.228Z" fill="#A061FF"/>
<path d="M351.944 177.741H344.228V190.086H351.944V177.741Z" fill="#A061FF"/>
<path d="M344.228 157.679V160.765H347.315V166.938H344.228V170.025H351.944V157.679H344.228Z" fill="#A061FF"/>
<path d="M351.944 217.864H344.228V230.21H351.944V217.864Z" fill="#A061FF"/>
<path d="M344.228 197.802V200.889H347.315V207.062H344.228V210.148H351.944V197.802H344.228Z" fill="#A061FF"/>
<path d="M351.944 257.988H344.228V270.333H351.944V257.988Z" fill="#A061FF"/>
<path d="M351.944 310.457H344.228V322.802H351.944V310.457Z" fill="#A061FF"/>
<path d="M344.228 237.926V241.012H347.315V247.185H344.228V250.272H351.944V237.926H344.228Z" fill="#A061FF"/>
<path d="M344.228 332.062V335.148H347.315V341.321H344.228V344.407H351.944V332.062H344.228Z" fill="#A061FF"/>
<path d="M236.204 310.457V313.543H239.29V319.716H236.204V322.802H243.92V310.457H236.204Z" fill="#A061FF"/>
<path d="M236.204 330.519V333.605H239.29V339.778H236.204V342.864H243.92V330.519H236.204Z" fill="#A061FF"/>
<path d="M196.08 97.494V100.58H199.167V106.753H196.08V109.84H203.796V97.494H196.08Z" fill="#A061FF"/>
<path d="M196.08 176.198V179.284H199.167V185.457H196.08V188.543H203.796V176.198H196.08Z" fill="#A061FF"/>
<path d="M196.08 196.259V199.346H199.167V205.519H196.08V208.605H203.796V196.259H196.08Z" fill="#A061FF"/>
<path d="M196.08 236.383V239.469H199.167V245.642H196.08V248.728H203.796V236.383H196.08Z" fill="#A061FF"/>
<path d="M196.08 293.481V296.568H199.167V302.741H196.08V305.827H203.796V293.481H196.08Z" fill="#A061FF"/>
<path d="M196.08 310.457V313.543H199.167V319.716H196.08V322.802H203.796V310.457H196.08Z" fill="#A061FF"/>
<path d="M284.043 3.35803H276.327V15.7037H284.043V3.35803Z" fill="#A061FF"/>
<path d="M284.043 23.4198H276.327V35.7655H284.043V23.4198Z" fill="#A061FF"/>
<path d="M284.043 45.0247H273.241V46.5679H284.043V45.0247Z" fill="#A061FF"/>
<path d="M284.043 143.79H273.241V145.333H284.043V143.79Z" fill="#A061FF"/>
<path d="M284.043 160.765H273.241V162.309H284.043V160.765Z" fill="#A061FF"/>
<path d="M276.327 58.9141V62.0001H279.414V68.1731H276.327V71.2591H284.043V58.9141H276.327Z" fill="#A061FF"/>
<path d="M276.327 97.494V100.58H279.414V106.753H276.327V109.84H284.043V97.494H276.327Z" fill="#A061FF"/>
<path d="M276.327 176.198V179.284H279.414V185.457H276.327V188.543H284.043V176.198H276.327Z" fill="#A061FF"/>
<path d="M372.006 137.617H364.29V149.963H372.006V137.617Z" fill="#A061FF"/>
<path d="M372.006 157.679H364.29V170.025H372.006V157.679Z" fill="#A061FF"/>
<path d="M372.006 179.284H361.204V180.827H372.006V179.284Z" fill="#A061FF"/>
<path d="M372.006 278.049H361.204V279.593H372.006V278.049Z" fill="#A061FF"/>
<path d="M372.006 295.025H361.204V296.568H372.006V295.025Z" fill="#A061FF"/>
<path d="M364.29 193.173V196.259H367.377V202.432H364.29V205.519H372.006V193.173H364.29Z" fill="#A061FF"/>
<path d="M364.29 231.753V234.84H367.377V241.012H364.29V244.099H372.006V231.753H364.29Z" fill="#A061FF"/>
<path d="M364.29 310.457V313.543H367.377V319.716H364.29V322.802H372.006V310.457H364.29Z" fill="#A061FF"/>
<path d="M396.698 3.35803H388.982V15.7037H396.698V3.35803Z" fill="#A061FF"/>
<path d="M422.932 0.271606H415.216V12.6173H422.932V0.271606Z" fill="#A061FF"/>
<path d="M436.821 0.271606H429.105V12.6173H436.821V0.271606Z" fill="#A061FF"/>
<path d="M436.821 37.3086H429.105V49.6543H436.821V37.3086Z" fill="#A061FF"/>
<path d="M452.253 18.7902H444.537V31.1358H452.253V18.7902Z" fill="#A061FF"/>
<path d="M452.253 38.8518H444.537V51.1975H452.253V38.8518Z" fill="#A061FF"/>
<path d="M436.821 77.4321H429.105V89.7778H436.821V77.4321Z" fill="#A061FF"/>
<path d="M452.253 97.4939H444.537V109.84H452.253V97.4939Z" fill="#A061FF"/>
<path d="M436.821 173.111H429.105V185.457H436.821V173.111Z" fill="#A061FF"/>
<path d="M422.932 97.4939H415.216V109.84H422.932V97.4939Z" fill="#A061FF"/>
<path d="M396.698 23.4198H388.982V35.7655H396.698V23.4198Z" fill="#A061FF"/>
<path d="M396.698 216.321H388.982V228.667H396.698V216.321Z" fill="#A061FF"/>
<path d="M396.698 256.444H388.982V268.79H396.698V256.444Z" fill="#A061FF"/>
<path d="M396.698 276.506H388.982V288.852H396.698V276.506Z" fill="#A061FF"/>
<path d="M396.698 45.0247H385.895V46.5679H396.698V45.0247Z" fill="#A061FF"/>
<path d="M438.364 63.5432H427.562V65.0864H438.364V63.5432Z" fill="#A061FF"/>
<path d="M396.698 143.79H385.895V145.333H396.698V143.79Z" fill="#A061FF"/>
<path d="M396.698 160.765H385.895V162.309H396.698V160.765Z" fill="#A061FF"/>
<path d="M438.364 259.531H427.562V261.074H438.364V259.531Z" fill="#A061FF"/>
<path d="M426.018 296.568H415.216V298.111H426.018V296.568Z" fill="#A061FF"/>
<path d="M388.981 58.9141V62.0001H392.068V68.1731H388.981V71.2591H396.698V58.9141H388.981Z" fill="#A061FF"/>
<path d="M415.216 37.309V40.395H418.302V46.568H415.216V49.654H422.932V37.309H415.216Z" fill="#A061FF"/>
<path d="M444.537 57.37V60.457H447.623V66.63H444.537V69.716H452.253V57.37H444.537Z" fill="#A061FF"/>
<path d="M444.537 117.556V120.642H447.623V126.815H444.537V129.901H452.253V117.556H444.537Z" fill="#A061FF"/>
<path d="M444.537 137.617V140.704H447.623V146.877H444.537V149.963H452.253V137.617H444.537Z" fill="#A061FF"/>
<path d="M444.537 75.889V78.975H447.623V85.148H444.537V88.235H452.253V75.889H444.537Z" fill="#A061FF"/>
<path d="M429.105 18.79V21.877H432.191V28.049H429.105V31.136H436.821V18.79H429.105Z" fill="#A061FF"/>
<path d="M436.821 117.556H429.105V129.901H436.821V117.556Z" fill="#A061FF"/>
<path d="M436.821 154.593H429.105V166.938H436.821V154.593Z" fill="#A061FF"/>
<path d="M429.105 136.074V139.16H432.191V145.333H429.105V148.42H436.821V136.074H429.105Z" fill="#A061FF"/>
<path d="M415.216 57.37V60.457H418.302V66.63H415.216V69.716H422.932V57.37H415.216Z" fill="#A061FF"/>
<path d="M415.216 77.432V80.519H418.302V86.691H415.216V89.778H422.932V77.432H415.216Z" fill="#A061FF"/>
<path d="M422.932 137.617H415.216V149.963H422.932V137.617Z" fill="#A061FF"/>
<path d="M415.216 117.556V120.642H418.302V126.815H415.216V129.901H422.932V117.556H415.216Z" fill="#A061FF"/>
<path d="M422.932 177.741H415.216V190.086H422.932V177.741Z" fill="#A061FF"/>
<path d="M415.216 157.679V160.765H418.302V166.938H415.216V170.025H422.932V157.679H415.216Z" fill="#A061FF"/>
<path d="M422.932 217.864H415.216V230.21H422.932V217.864Z" fill="#A061FF"/>
<path d="M436.821 214.778H429.105V227.124H436.821V214.778Z" fill="#A061FF"/>
<path d="M415.216 197.802V200.889H418.302V207.062H415.216V210.148H422.932V197.802H415.216Z" fill="#A061FF"/>
<path d="M444.537 197.802V200.889H447.623V207.062H444.537V210.148H452.253V197.802H444.537Z" fill="#A061FF"/>
<path d="M530.957 18.7902H523.241V31.1358H530.957V18.7902Z" fill="#A061FF"/>
<path d="M530.957 38.8518H523.241V51.1975H530.957V38.8518Z" fill="#A061FF"/>
<path d="M530.957 97.4939H523.241V109.84H530.957V97.4939Z" fill="#A061FF"/>
<path d="M523.241 57.37V60.457H526.327V66.63H523.241V69.716H530.957V57.37H523.241Z" fill="#A061FF"/>
<path d="M523.241 117.556V120.642H526.327V126.815H523.241V129.901H530.957V117.556H523.241Z" fill="#A061FF"/>
<path d="M523.241 137.617V140.704H526.327V146.877H523.241V149.963H530.957V137.617H523.241Z" fill="#A061FF"/>
<path d="M523.241 75.889V78.975H526.327V85.148H523.241V88.235H530.957V75.889H523.241Z" fill="#A061FF"/>
<path d="M523.241 197.802V200.889H526.327V207.062H523.241V210.148H530.957V197.802H523.241Z" fill="#A061FF"/>
<path d="M422.932 257.988H415.216V270.333H422.932V257.988Z" fill="#A061FF"/>
<path d="M436.821 234.839H429.105V247.185H436.821V234.839Z" fill="#A061FF"/>
<path d="M422.932 310.457H415.216V322.802H422.932V310.457Z" fill="#A061FF"/>
<path d="M436.821 273.42H429.105V285.765H436.821V273.42Z" fill="#A061FF"/>
<path d="M415.216 237.926V241.012H418.302V247.185H415.216V250.272H422.932V237.926H415.216Z" fill="#A061FF"/>
<path d="M415.216 332.062V335.148H418.302V341.321H415.216V344.407H422.932V332.062H415.216Z" fill="#A061FF"/>
<path d="M507.809 0.271606H500.093V12.6173H507.809V0.271606Z" fill="#A061FF"/>
<path d="M507.809 97.4939H500.093V109.84H507.809V97.4939Z" fill="#A061FF"/>
<path d="M510.895 296.568H500.093V298.111H510.895V296.568Z" fill="#A061FF"/>
<path d="M500.093 37.309V40.395H503.179V46.568H500.093V49.654H507.809V37.309H500.093Z" fill="#A061FF"/>
<path d="M500.093 57.37V60.457H503.179V66.63H500.093V69.716H507.809V57.37H500.093Z" fill="#A061FF"/>
<path d="M500.093 77.432V80.519H503.179V86.691H500.093V89.778H507.809V77.432H500.093Z" fill="#A061FF"/>
<path d="M507.809 137.617H500.093V149.963H507.809V137.617Z" fill="#A061FF"/>
<path d="M500.093 117.556V120.642H503.179V126.815H500.093V129.901H507.809V117.556H500.093Z" fill="#A061FF"/>
<path d="M507.809 177.741H500.093V190.086H507.809V177.741Z" fill="#A061FF"/>
<path d="M500.093 157.679V160.765H503.179V166.938H500.093V170.025H507.809V157.679H500.093Z" fill="#A061FF"/>
<path d="M507.809 217.864H500.093V230.21H507.809V217.864Z" fill="#A061FF"/>
<path d="M500.093 197.802V200.889H503.179V207.062H500.093V210.148H507.809V197.802H500.093Z" fill="#A061FF"/>
<path d="M507.809 257.988H500.093V270.333H507.809V257.988Z" fill="#A061FF"/>
<path d="M507.809 310.457H500.093V322.802H507.809V310.457Z" fill="#A061FF"/>
<path d="M500.093 237.926V241.012H503.179V247.185H500.093V250.272H507.809V237.926H500.093Z" fill="#A061FF"/>
<path d="M500.093 332.062V335.148H503.179V341.321H500.093V344.407H507.809V332.062H500.093Z" fill="#A061FF"/>
<path d="M544.846 0.271606H537.13V12.6173H544.846V0.271606Z" fill="#A061FF"/>
<path d="M544.846 97.4939H537.13V109.84H544.846V97.4939Z" fill="#A061FF"/>
<path d="M547.932 296.568H537.13V298.111H547.932V296.568Z" fill="#A061FF"/>
<path d="M537.13 37.309V40.395H540.216V46.568H537.13V49.654H544.846V37.309H537.13Z" fill="#A061FF"/>
<path d="M537.13 57.37V60.457H540.216V66.63H537.13V69.716H544.846V57.37H537.13Z" fill="#A061FF"/>
<path d="M537.13 77.432V80.519H540.216V86.691H537.13V89.778H544.846V77.432H537.13Z" fill="#A061FF"/>
<path d="M544.846 137.617H537.13V149.963H544.846V137.617Z" fill="#A061FF"/>
<path d="M537.13 117.556V120.642H540.216V126.815H537.13V129.901H544.846V117.556H537.13Z" fill="#A061FF"/>
<path d="M544.846 177.741H537.13V190.086H544.846V177.741Z" fill="#A061FF"/>
<path d="M537.13 157.679V160.765H540.216V166.938H537.13V170.025H544.846V157.679H537.13Z" fill="#A061FF"/>
<path d="M544.846 217.864H537.13V230.21H544.846V217.864Z" fill="#A061FF"/>
<path d="M537.13 197.802V200.889H540.216V207.062H537.13V210.148H544.846V197.802H537.13Z" fill="#A061FF"/>
<path d="M544.846 257.988H537.13V270.333H544.846V257.988Z" fill="#A061FF"/>
<path d="M544.846 310.457H537.13V322.802H544.846V310.457Z" fill="#A061FF"/>
<path d="M537.13 237.926V241.012H540.216V247.185H537.13V250.272H544.846V237.926H537.13Z" fill="#A061FF"/>
<path d="M537.13 332.062V335.148H540.216V341.321H537.13V344.407H544.846V332.062H537.13Z" fill="#A061FF"/>
<path d="M429.105 310.457V313.543H432.191V319.716H429.105V322.802H436.821V310.457H429.105Z" fill="#A061FF"/>
<path d="M429.105 330.519V333.605H432.191V339.778H429.105V342.864H436.821V330.519H429.105Z" fill="#A061FF"/>
<path d="M388.981 97.494V100.58H392.068V106.753H388.981V109.84H396.698V97.494H388.981Z" fill="#A061FF"/>
<path d="M388.981 176.198V179.284H392.068V185.457H388.981V188.543H396.698V176.198H388.981Z" fill="#A061FF"/>
<path d="M388.981 196.259V199.346H392.068V205.519H388.981V208.605H396.698V196.259H388.981Z" fill="#A061FF"/>
<path d="M388.981 236.383V239.469H392.068V245.642H388.981V248.728H396.698V236.383H388.981Z" fill="#A061FF"/>
<path d="M388.981 293.481V296.568H392.068V302.741H388.981V305.827H396.698V293.481H388.981Z" fill="#A061FF"/>
<path d="M388.981 310.457V313.543H392.068V319.716H388.981V322.802H396.698V310.457H388.981Z" fill="#A061FF"/>
<path d="M476.944 3.35803H469.228V15.7037H476.944V3.35803Z" fill="#A061FF"/>
<path d="M476.944 23.4198H469.228V35.7655H476.944V23.4198Z" fill="#A061FF"/>
<path d="M476.944 45.0247H466.142V46.5679H476.944V45.0247Z" fill="#A061FF"/>
<path d="M476.944 143.79H466.142V145.333H476.944V143.79Z" fill="#A061FF"/>
<path d="M476.944 160.765H466.142V162.309H476.944V160.765Z" fill="#A061FF"/>
<path d="M469.228 58.9141V62.0001H472.315V68.1731H469.228V71.2591H476.944V58.9141H469.228Z" fill="#A061FF"/>
<path d="M469.228 97.494V100.58H472.315V106.753H469.228V109.84H476.944V97.494H469.228Z" fill="#A061FF"/>
<path d="M469.228 176.198V179.284H472.315V185.457H469.228V188.543H476.944V176.198H469.228Z" fill="#A061FF"/>
<path d="M564.907 137.617H557.191V149.963H564.907V137.617Z" fill="#A061FF"/>
<path d="M564.907 157.679H557.191V170.025H564.907V157.679Z" fill="#A061FF"/>
<path d="M564.907 179.284H554.105V180.827H564.907V179.284Z" fill="#A061FF"/>
<path d="M564.907 278.049H554.105V279.593H564.907V278.049Z" fill="#A061FF"/>
<path d="M564.907 295.025H554.105V296.568H564.907V295.025Z" fill="#A061FF"/>
<path d="M557.191 193.173V196.259H560.278V202.432H557.191V205.519H564.907V193.173H557.191Z" fill="#A061FF"/>
<path d="M557.191 231.753V234.84H560.278V241.012H557.191V244.099H564.907V231.753H557.191Z" fill="#A061FF"/>
<path d="M557.191 310.457V313.543H560.278V319.716H557.191V322.802H564.907V310.457H557.191Z" fill="#A061FF"/>
<path d="M887.039 643.534H59.4346V646.089H887.039V643.534Z" fill="#2F2E41"/>
<path d="M230.5 341.339V393.339L237.5 425.339C237.5 425.339 236.5 445.339 237.5 451.339C238.5 457.339 236.5 467.339 230.5 467.339C224.5 467.339 221.5 482.339 221.5 482.339C221.5 482.339 219.5 488.339 214.5 489.339C209.5 490.339 209.5 489.339 209.5 489.339L205.5 499.339L122.5 554.339L138.5 594.339C138.5 594.339 163.5 585.339 165.5 582.339C167.5 579.339 184.5 586.339 184.5 579.339C184.5 572.339 187.5 554.339 193.5 553.339C199.5 552.339 249.5 529.339 249.5 529.339C249.5 529.339 275.5 500.339 277.5 489.339C279.5 478.339 288.5 447.339 288.5 447.339L313.5 489.339V573.339L309.5 618.339L353.5 612.339C353.5 612.339 349.5 584.339 353.5 580.339C357.5 576.339 363.5 528.339 359.5 522.339C355.5 516.339 361.5 489.339 359.5 485.339C357.5 481.339 358.5 452.339 353.5 444.339C348.5 436.339 318.5 354.339 318.5 354.339L230.5 341.339Z" fill="#2F2E41"/>
<path d="M315.5 616.339C315.5 616.339 300.5 641.339 310.5 644.339C320.5 647.339 339.5 644.339 341.5 644.339C343.5 644.339 379.5 645.339 379.5 645.339C379.5 645.339 403.5 640.339 403.5 633.339C403.5 626.339 388.5 626.339 383.5 625.339C378.5 624.339 347.5 612.339 347.5 612.339L315.5 616.339Z" fill="#2F2E41"/>
<path d="M127.093 555.468C127.093 555.468 98.1901 551.64 99.4119 562.009C100.634 572.377 110.939 588.62 111.733 590.455C112.272 591.698 118.588 607.433 122.609 617.461C125.515 624.812 129.881 631.497 135.444 637.113C139.375 641.042 143.66 644.192 146.47 642.975C152.894 640.193 146.932 626.428 145.862 621.443C144.792 616.457 143.482 583.242 143.482 583.242L127.093 555.468Z" fill="#2F2E41"/>
<path d="M328 175.84L360 101.84C360 101.84 357 94.8395 350 95.8395C350 95.8395 340.5 71.3395 322.5 71.3395C322.5 71.3395 295.5 56.3395 287.5 71.3395C287.5 71.3395 270.5 86.3395 271.5 100.34C272.5 114.34 273.5 124.34 273.5 124.34C273.5 124.34 257.5 126.34 260.5 134.34C263.5 142.34 264.5 142.34 260.5 145.34L256.5 148.34C256.5 148.34 173.5 223.34 219.5 333.34L223.5 350.34V366.339C223.5 366.339 324.5 367.339 324.5 366.339C324.5 365.339 322.5 359.339 326.5 355.339C330.5 351.339 330.5 345.34 330.5 345.34C330.5 345.34 326.5 325.34 328.5 319.34C330.5 313.34 331.5 287.34 327.5 281.34C323.5 275.34 325.5 227.34 325.5 227.34L334.5 210.34L331.5 200.34L328.5 190.34L328 175.84Z" fill="#8985A8"/>
<path opacity="0.1" d="M319.5 376.339C319.5 376.339 307.5 343.339 308.5 337.339C309.5 331.339 306.5 319.339 306.5 319.339L302.5 238.339C302.5 238.339 319.5 166.339 281.5 154.339C281.5 154.339 271.885 158.535 264.006 172.036C256.215 175.507 246.762 184.289 244.5 206.339C240.5 245.339 258.5 345.339 267.5 362.339C276.5 379.339 282.5 391.339 282.5 391.339L291.906 387.159C292.295 387.929 292.5 388.339 292.5 388.339L319.5 376.339Z" fill="black"/>
<path d="M325 166.839C326.657 166.839 328 165.496 328 163.839C328 162.183 326.657 160.839 325 160.839C323.343 160.839 322 162.183 322 163.839C322 165.496 323.343 166.839 325 166.839Z" fill="#F2F2F2"/>
<path d="M326 163.839H324V210.839H326V163.839Z" fill="#3F3D56"/>
<path d="M289 379.839L297 396.839C297 396.839 315 390.839 315 387.839C315 384.839 307 371.839 307 371.839L289 379.839Z" fill="#FFB8B8"/>
<path d="M277.5 154.339C277.5 154.339 254.5 164.339 250.5 203.339C246.5 242.339 264.5 342.339 273.5 359.339C282.5 376.339 288.5 388.339 288.5 388.339L315.5 376.339C315.5 376.339 303.5 343.339 304.5 337.339C305.5 331.339 302.5 319.339 302.5 319.339L298.5 238.339C298.5 238.339 315.5 166.339 277.5 154.339Z" fill="#8985A8"/>
</svg>
